<svg xmlns:xlink="http://www.w3.org/1999/xlink" xmlns="http://www.w3.org/2000/svg" viewBox="0 0 32 32" aria-hidden="true" role="presentation" focusable="false" style="display: block; height: 24px; width: 24px; fill: currentcolor;" width="32"  height="32" ><path d="m3.7 2.3 26 26-1.4 1.4-26-26zm1.82 7.46 1.55 1.56L6.44 13h2.32l2 2H7a3 3 0 0 0-3 2.82V23h14.76l2 2H8v2a2 2 0 0 1-1.85 2H4a2 2 0 0 1-2-1.85V18a5 5 0 0 1 1.9-3.93L4.3 13H2v-2h3.06zM6 25H4v2h2zM9.24 5h14.07a2 2 0 0 1 1.8 1.15l.07.15 1.76 4.7H30v2h-2.3l.4 1.07a5 5 0 0 1 1.9 3.71V25.76l-1.99-1.99L28 18a3 3 0 0 0-2.82-3H19.24l-2-2h8.32L23.3 7H11.24zM25 18a1 1 0 1 1 0 2 1 1 0 0 1 0-2zM7 18a1 1 0 1 1 0 2 1 1 0 0 1 0-2zm6.76 0 2 2H10v-2z" fill="#222222"></path></svg>