<svg xmlns:xlink="http://www.w3.org/1999/xlink" xmlns="http://www.w3.org/2000/svg" viewBox="0 0 32 32" aria-hidden="true" role="presentation" focusable="false" style="display: block; height: 24px; width: 24px; fill: currentcolor;" width="32"  height="32" ><path d="m20.28 24.52 5.2 5.2A3.99 3.99 0 0 1 20 26c0-.52.1-1.02.28-1.48zM11.76 16l1.82 1.83L9.41 22h8.35l2 2h-8.3a4 4 0 1 1-5.3-1.56l.07-.07.06-.08L10.6 18h-1.6a3 3 0 0 0-1.97.74l-.14.14-3.83 3.83-1.42-1.42 3.83-3.83a5 5 0 0 1 3.27-1.45L9 16zM3.98 2.56l25.46 25.46-1.42 1.42L2.56 3.98zM8 24a2 2 0 1 0 0 4 2 2 0 0 0 0-4zM31 2v2h-2.34a3 3 0 0 0-1.98.74l-.14.14-.54.53V19c0 .8-.19 1.56-.52 2.23l-1.56-1.55c.03-.1.05-.22.06-.33l.01-.17L24 19V7.41l-6.17 6.17-1.42-1.41-1.3-1.41A3.99 3.99 0 0 1 18 4a4 4 0 0 1 3.8 2.78l3.32-3.32a5 5 0 0 1 3.27-1.45l.27-.01zM18 6a2 2 0 1 0 .22 3.99l.18-.03.13-.03.03-.01a2 2 0 0 0 1.24-1.04l.07-.16.07-.22.03-.15.02-.15v-.03L20 8a2 2 0 0 0-1.85-2z" fill="#222222"></path></svg>